<svg xmlns="http://www.w3.org/2000/svg" width="180" height="222" viewBox="0 0 180 222">
<g>
<path d="M 79.28,214.30 C76.30,213.72 71.82,208.24 72.20,205.61 C72.67,202.33 76.70,202.25 78.17,205.48 C79.14,207.60 79.95,208.04 82.43,207.80 L 85.50,207.50 L 85.78,194.13 L 86.06,180.76 L 81.24,175.63 C78.59,172.81 75.42,168.86 74.19,166.85 C68.89,158.17 65.99,143.52 67.69,134.00 C68.50,129.53 68.55,129.48 77.25,125.26 L 86.00,121.02 L 86.00,110.07 L 86.00,99.12 L 81.75,100.57 C75.79,102.60 72.15,105.84 70.56,110.50 C69.54,113.51 68.60,114.57 66.77,114.80 C64.72,115.05 64.16,114.49 63.15,111.10 C59.36,98.45 37.62,94.78 26.89,104.99 C24.37,107.39 23.00,109.58 23.00,111.22 C23.00,114.25 20.88,116.28 18.63,115.41 C14.44,113.80 18.02,92.44 24.73,79.00 C29.25,69.94 43.37,55.09 52.19,50.12 C69.46,40.41 87.69,37.96 106.79,42.81 L 114.05,44.66 L 120.59,34.25 C125.71,26.09 126.87,23.55 125.98,22.47 C125.35,21.71 125.14,20.14 125.51,18.98 C125.96,17.54 125.34,15.59 123.53,12.86 C120.03,7.57 120.47,5.43 125.03,5.72 C129.93,6.03 141.87,6.05 145.88,5.75 C151.26,5.35 152.06,7.88 148.12,12.85 C145.44,16.23 145.07,17.27 145.97,18.94 C146.75,20.39 146.73,21.46 145.91,22.77 C144.97,24.29 145.69,25.99 150.27,33.10 C153.29,37.78 156.71,43.48 157.88,45.77 C162.56,54.95 159.23,63.46 148.14,70.65 C147.94,70.78 148.67,72.15 149.76,73.69 C155.34,81.59 160.39,95.08 161.86,106.00 C162.90,113.69 162.55,115.00 159.47,115.00 C157.68,115.00 156.89,114.16 155.95,111.25 C154.40,106.39 151.47,103.18 146.50,100.89 C135.92,96.01 120.76,101.39 117.87,111.05 C116.92,114.21 116.21,115.00 114.31,115.00 C112.92,115.00 111.71,114.27 111.40,113.25 C109.04,105.65 104.08,101.15 96.25,99.52 L 93.00,98.84 L 93.00,109.93 L 93.00,121.02 L 101.36,124.88 C105.96,127.00 110.05,129.28 110.46,129.94 C110.87,130.59 111.43,134.59 111.72,138.81 C112.65,152.38 108.03,164.92 98.38,175.04 L 93.00,180.68 L 93.00,194.12 C93.00,209.14 92.33,211.13 86.40,213.61 C84.57,214.37 82.71,214.94 82.28,214.86 C81.85,214.79 80.50,214.53 79.28,214.30 M 96.10,168.43 C102.77,160.16 106.83,146.73 105.45,137.51 C104.83,133.38 104.64,133.20 97.66,130.14 C93.72,128.41 89.93,127.00 89.23,127.00 C88.52,127.00 84.76,128.61 80.86,130.57 L 73.77,134.14 L 74.20,143.82 C74.70,155.29 77.60,162.52 84.80,170.22 C89.84,175.60 90.39,175.52 96.10,168.43 M 78.79,94.55 C81.30,93.70 86.57,93.00 90.50,93.00 C99.22,93.00 105.49,95.02 110.74,99.51 L 114.71,102.91 L 117.54,99.96 C123.80,93.43 141.02,90.68 149.29,94.89 C152.82,96.69 153.00,96.70 153.00,94.99 C153.00,92.68 144.48,75.65 142.51,74.01 C141.68,73.32 137.96,72.66 134.25,72.54 C121.79,72.14 112.28,64.42 111.65,54.18 C111.43,50.54 111.36,50.48 104.96,48.82 C95.91,46.46 82.16,46.53 72.61,48.97 C54.41,53.63 38.14,66.67 30.15,83.00 C27.86,87.67 25.72,92.93 25.38,94.68 L 24.78,97.86 L 29.14,95.68 C39.07,90.72 56.72,92.92 63.46,99.96 L 66.29,102.91 L 70.26,99.51 C72.45,97.64 76.29,95.41 78.79,94.55 M 146.50,63.71 C148.73,62.45 151.38,59.82 152.49,57.77 C155.00,53.10 154.58,51.92 144.97,36.53 C139.10,27.12 137.32,24.96 135.64,25.20 C132.66,25.63 118.00,49.24 118.00,53.62 C118.00,57.47 122.00,62.65 126.45,64.59 C131.51,66.80 141.84,66.34 146.50,63.71 M 139.50,13.99 C139.87,13.40 138.50,13.00 136.06,13.00 C131.81,13.00 130.80,14.23 133.72,15.87 C135.48,16.85 138.30,15.93 139.50,13.99 M 85.69,162.20 C82.64,159.01 82.38,157.76 84.44,156.05 C85.48,155.18 86.41,155.15 87.88,155.93 C89.15,156.62 90.10,156.65 90.48,156.03 C90.81,155.50 89.52,154.41 87.62,153.61 C81.26,150.96 80.53,145.43 85.80,139.85 C89.17,136.28 90.88,136.33 93.82,140.05 C97.01,144.09 96.37,146.57 92.21,146.25 C90.45,146.11 89.00,146.44 89.00,147.00 C89.00,147.55 89.70,148.00 90.55,148.00 C92.96,148.00 97.00,152.64 97.00,155.42 C97.00,158.07 91.64,165.00 89.58,165.00 C88.92,165.00 87.16,163.74 85.69,162.20 M 131.63,58.97 C128.41,55.14 129.10,52.57 133.14,53.38 C134.72,53.69 136.00,53.51 136.00,52.98 C136.00,52.44 135.32,52.00 134.50,52.00 C132.08,52.00 129.00,48.22 129.00,45.25 C129.00,42.21 133.70,36.00 136.00,36.00 C137.97,36.00 142.14,41.04 141.75,42.95 C141.53,44.00 140.40,44.45 138.21,44.35 C136.45,44.27 135.00,44.61 135.00,45.10 C135.00,45.60 135.70,46.00 136.55,46.00 C138.70,46.00 143.00,50.52 143.00,52.79 C143.00,55.37 137.89,61.92 135.84,61.96 C134.93,61.98 133.03,60.64 131.63,58.97 Z" fill="rgba(0,0,0,1)"/>
</g>
</svg>